# xmcd
#
# Track frame offsets:
#	150
#	26443
#	47063
#	70888
#	96013
#	107491
#	122353
#	146989
#	161768
#	185350
#	201460
#	215537
#
# Disc length: 3270 seconds
#
# Revision: 1
# Processed by: cddbd v1.5.2PL0 Copyright (c) Steve Scherf et al.
# Submitted via: EasyCDDAExtractor 16.0.9.1
#
DISCID=ac0cc40c
DTITLE=Various Artist - DHVN: Suối Mơ - Văn Cao
DYEAR=2001
DGENRE=Country
TTITLE0=Cẩm Vân - Suối Mơ (Văn Cao)
TTITLE1=Lệ Thu - Cung Đàn Xưa (Văn Cao)
TTITLE2=Lâm Xuân - Trương Chi (Văn Cao)
TTITLE3=Thanh Lan - Buồn Tàn Thu (Văn Cao)
TTITLE4=Nhóm Dây Leo Xanh - Làng Tôi (Văn Cao)
TTITLE5=Quang Lý - Tiến Về Hà Nội (Văn Cao)
TTITLE6=Thanh Lan - Thiên Thai (Văn Cao)
TTITLE7=Lan Ngọc - Thu Cô Liêu (Văn Cao)
TTITLE8=Thái Châu - Đàn Chim Việt (Văn Cao)
TTITLE9=Lâm Xuân - Bắc Sơn (Văn Cao)
TTITLE10=Nhóm Dây Leo Xanh - Ngày Mùa (Văn Cao)
TTITLE11=Cẩm Vân - Sông Lô (Văn Cao)
EXTD=
EXTT0=
EXTT1=
EXTT2=
EXTT3=
EXTT4=
EXTT5=
EXTT6=
EXTT7=
EXTT8=
EXTT9=
EXTT10=
EXTT11=
PLAYORDER=
